<svg width="260" height="218" viewBox="0 0 260 218" fill="none" xmlns="http://www.w3.org/2000/svg">
<rect width="260" height="218" rx="4" fill="url(#paint0_linear_177_56)"/>
<mask id="path-2-outside-1_177_56" maskUnits="userSpaceOnUse" x="20" y="20" width="220" height="198" fill="black">
<rect fill="white" x="20" y="20" width="220" height="198"/>
<path d="M21 25C21 22.7909 22.7909 21 25 21H235C237.209 21 239 22.7909 239 25V218H21V25Z"/>
</mask>
<path d="M21 25C21 22.7909 22.7909 21 25 21H235C237.209 21 239 22.7909 239 25V218H21V25Z" fill="#9E9594"/>
<path d="M20 25C20 22.2386 22.2386 20 25 20H235C237.761 20 240 22.2386 240 25H238C238 23.3431 236.657 22 235 22H25C23.3431 22 22 23.3431 22 25H20ZM22 25M239 218H21H239M20 218V25C20 22.2386 22.2386 20 25 20V22C23.3431 22 22 23.3431 22 25V218H20ZM235 20C237.761 20 240 22.2386 240 25V218H238V25C238 23.3431 236.657 22 235 22V20Z" fill="#ECECEC" mask="url(#path-2-outside-1_177_56)"/>
<rect x="35" y="35" width="32" height="10" rx="5" fill="#CFCBCA"/>
<rect x="35" y="76" width="73" height="10" rx="5" fill="#CFCBCA"/>
<rect x="35" y="90" width="64" height="10" rx="5" fill="#CFCBCA"/>
<rect x="35" y="104" width="90" height="10" rx="5" fill="#CFCBCA"/>
<rect x="89" y="37" width="22" height="6" rx="3" fill="#CFCBCA"/>
<rect x="119" y="37" width="22" height="6" rx="3" fill="#CFCBCA"/>
<rect x="149" y="37" width="22" height="6" rx="3" fill="#CFCBCA"/>
<rect x="193" y="35" width="32" height="10" rx="5" fill="#CFCBCA"/>
<rect x="156" y="63" width="68" height="63" rx="6" fill="#CFCBCA"/>
<path d="M180.714 84.7857C180.204 84.7857 179.786 85.2036 179.786 85.7143V104.286C179.786 104.796 180.204 105.214 180.714 105.214H199.286C199.796 105.214 200.214 104.796 200.214 104.286V85.7143C200.214 85.2036 199.796 84.7857 199.286 84.7857H180.714ZM177 85.7143C177 83.6656 178.666 82 180.714 82H199.286C201.334 82 203 83.6656 203 85.7143V104.286C203 106.334 201.334 108 199.286 108H180.714C178.666 108 177 106.334 177 104.286V85.7143ZM184.429 87.5714C185.456 87.5714 186.286 88.4013 186.286 89.4286C186.286 90.4558 185.456 91.2857 184.429 91.2857C183.401 91.2857 182.571 90.4558 182.571 89.4286C182.571 88.4013 183.401 87.5714 184.429 87.5714ZM192.321 91.75C192.815 91.75 193.273 92.0112 193.523 92.4348L198.166 100.328C198.421 100.757 198.421 101.291 198.171 101.726C197.922 102.162 197.463 102.429 196.964 102.429H183.036C182.519 102.429 182.037 102.138 181.8 101.68C181.562 101.221 181.596 100.664 181.892 100.241L185.142 95.5978C185.404 95.2263 185.827 95.0058 186.286 95.0058C186.744 95.0058 187.168 95.2263 187.429 95.5978L188.427 97.0254L191.126 92.4406C191.375 92.017 191.834 91.7558 192.327 91.7558L192.321 91.75Z" fill="#918684"/>
<path d="M37 136.5H124C124.828 136.5 125.5 137.172 125.5 138V185.5H35.5V138C35.5 137.172 36.1716 136.5 37 136.5Z" fill="url(#paint1_linear_177_56)" stroke="#ECECEC"/>
<rect x="134" y="136" width="91" height="50" rx="6" fill="#CFCBCA"/>
<circle cx="149" cy="151" r="7" fill="#918684"/>
<rect x="142" y="164" width="46" height="6" rx="3" fill="#918684"/>
<rect x="142" y="172" width="46" height="6" rx="3" fill="#918684"/>
<rect x="122" y="132" width="8" height="8" fill="#ECECEC"/>
<rect x="122" y="182" width="8" height="8" fill="#ECECEC"/>
<rect x="31" y="182" width="8" height="8" fill="#ECECEC"/>
<rect x="31" y="132" width="8" height="8" fill="#ECECEC"/>
<path d="M127.339 189.238C127.037 188.128 128.067 187.097 129.177 187.4L129.288 187.436L142.03 191.932C143.297 192.379 143.382 194.138 142.164 194.706L137.036 197.098L134.645 202.225C134.077 203.443 132.319 203.358 131.871 202.091L127.375 189.349L127.339 189.238Z" fill="#282828" stroke="#ECECEC" stroke-width="2"/>
<defs>
<linearGradient id="paint0_linear_177_56" x1="130" y1="0" x2="130" y2="218" gradientUnits="userSpaceOnUse">
<stop stop-color="#8C7D7B"/>
<stop offset="1" stop-color="#70605D"/>
</linearGradient>
<linearGradient id="paint1_linear_177_56" x1="80.5" y1="136" x2="80.5" y2="186" gradientUnits="userSpaceOnUse">
<stop stop-color="#CFCBCA"/>
<stop offset="1" stop-color="#918684"/>
</linearGradient>
</defs>
</svg>
