<svg width="42" height="42" viewBox="0 0 42 42" fill="none" xmlns="http://www.w3.org/2000/svg">
<path d="M34.4678 0C38.6277 0 42 3.37229 42 7.53223V34.4678C42 38.6277 38.6277 42 34.4678 42H7.53223C3.37229 42 0 38.6277 0 34.4678V7.53223C1.26277e-05 3.3723 3.3723 1.26273e-05 7.53223 0H34.4678ZM30.5244 15.165C26.797 15.1651 24.2257 16.8989 24.2256 20.0195C24.2256 23.0825 26.797 24.036 29.1377 24.7295C30.3514 25.1052 30.9873 25.3371 30.9873 25.915C30.9871 26.4349 30.5246 26.7236 29.5137 26.7236C28.04 26.7236 25.9016 26.0884 24.3701 25.0771L24.3408 29.5557C25.9013 30.4225 27.8083 30.7695 29.8311 30.7695C33.6744 30.7695 36.1309 28.7464 36.1309 25.7412C36.1308 22.5917 33.8768 21.7251 31.1895 20.916C29.8024 20.4825 29.3398 20.3375 29.3398 19.8174C29.3399 19.3841 29.7156 19.0948 30.6689 19.0947C31.9693 19.0947 33.9632 19.6441 34.9746 20.251L35.0039 15.9746C33.7325 15.4255 32.2871 15.165 30.5244 15.165ZM7.09473 30.5098H12.4697V25.0771H15.1279C19.0578 25.0771 23.2478 23.054 23.248 18.0264C23.248 13.7208 20.1564 11.1484 14.666 11.1484H7.09473V30.5098ZM14.9551 15.7432C16.66 15.7432 17.6426 16.6101 17.6426 18.1416C17.6425 19.8174 16.4867 20.4823 14.8398 20.4824H12.4697V15.7432H14.9551Z" fill="#808080"/>
</svg>
